<?xml version="1.0" standalone="no"?>
<!DOCTYPE svg PUBLIC "-//W3C//DTD SVG 20010904//EN"
 "http://www.w3.org/TR/2001/REC-SVG-20010904/DTD/svg10.dtd">
<svg version="1.0" xmlns="http://www.w3.org/2000/svg"
 width="368.000000pt" height="124.000000pt" viewBox="0 0 368.000000 124.000000"
 preserveAspectRatio="xMidYMid meet">

<g transform="translate(0.000000,124.000000) scale(0.100000,-0.100000)"
fill="#000000" stroke="none">
<path d="M373 1216 c-232 -57 -394 -289 -356 -511 54 -312 396 -486 675 -344
68 35 142 113 173 181 31 68 52 188 41 231 l-6 27 -210 0 -210 0 0 -55 0 -55
155 0 155 0 -7 -32 c-16 -87 -67 -154 -147 -195 -73 -38 -198 -44 -278 -13
-75 28 -150 96 -185 168 -25 50 -28 68 -28 152 0 112 18 161 85 234 109 118
316 142 437 50 17 -13 36 -24 40 -24 5 0 26 17 46 38 l38 39 -36 27 c-106 81
-253 113 -382 82z"/>
<path d="M1164 882 c-69 -24 -124 -70 -160 -134 -26 -48 -29 -62 -29 -143 0
-81 3 -95 30 -143 52 -94 129 -143 240 -150 123 -7 223 46 280 149 27 49 30
63 30 144 0 81 -3 95 -30 144 -69 125 -222 181 -361 133z m195 -125 c50 -33
76 -87 76 -158 -1 -133 -131 -217 -245 -159 -130 66 -127 270 4 331 53 25 114
20 165 -14z"/>
<path d="M2490 891 c-131 -40 -220 -156 -220 -286 0 -82 26 -143 89 -206 100
-100 232 -118 320 -44 16 14 32 25 36 25 4 0 5 -27 2 -60 -9 -100 -57 -158
-140 -167 -62 -7 -111 12 -151 59 l-34 40 -46 -21 c-25 -11 -46 -24 -46 -28 0
-34 99 -124 158 -145 107 -37 253 2 311 83 56 77 61 111 61 441 l0 298 -55 0
c-52 0 -55 -1 -55 -25 0 -31 -3 -31 -43 -1 -52 39 -129 54 -187 37z m127 -112
c68 -25 106 -88 107 -174 1 -74 -29 -133 -84 -164 -81 -46 -188 -12 -229 72
-73 150 60 322 206 266z"/>
<path d="M3304 890 c-54 -17 -127 -73 -156 -120 -15 -25 -33 -71 -39 -104 -41
-222 157 -406 373 -346 44 13 126 67 145 97 13 20 11 23 -32 53 l-47 32 -31
-30 c-57 -55 -128 -67 -196 -33 -33 17 -79 67 -69 76 2 2 89 38 193 81 105 42
193 80 197 83 12 10 -28 86 -68 131 -21 23 -56 51 -78 62 -46 23 -145 32 -192
18z m156 -122 c19 -13 35 -28 37 -34 2 -7 -46 -32 -109 -59 -171 -72 -158 -68
-158 -39 0 113 140 193 230 132z"/>
</g>
</svg>
