<svg id="svg" version="1.1" xmlns="http://www.w3.org/2000/svg" xmlns:xlink="http://www.w3.org/1999/xlink" width="400" height="430.6666666666667" viewBox="0, 0, 400,430.6666666666667"><g id="svgg"><path id="path0" d="M137.200 35.200 L 137.200 40.800 108.600 40.800 L 80.000 40.800 80.000 46.600 L 80.000 52.400 57.000 52.400 L 34.000 52.400 34.000 69.600 L 34.000 86.800 39.800 86.800 L 45.600 86.800 45.600 98.200 L 45.600 109.600 51.189 109.600 L 56.778 109.600 56.889 115.300 L 57.000 121.000 68.500 121.106 L 80.000 121.212 80.000 126.806 L 80.000 132.400 85.600 132.400 L 91.200 132.400 91.200 121.000 L 91.200 109.600 119.789 109.600 L 148.378 109.600 148.489 115.300 L 148.600 121.000 154.300 121.111 L 160.000 121.222 160.000 155.411 L 160.000 189.600 165.800 189.600 L 171.600 189.600 171.600 223.989 L 171.600 258.378 177.300 258.489 L 183.000 258.600 183.102 292.689 L 183.204 326.777 188.702 326.889 L 194.200 327.000 194.303 349.900 L 194.407 372.800 200.200 372.800 L 205.993 372.800 206.097 349.900 L 206.200 327.000 211.698 326.889 L 217.196 326.777 217.298 292.689 L 217.400 258.600 223.100 258.489 L 228.800 258.378 228.800 223.989 L 228.800 189.600 234.600 189.600 L 240.400 189.600 240.400 155.400 L 240.400 121.200 245.989 121.200 L 251.578 121.200 251.689 115.500 L 251.800 109.800 280.400 109.800 L 309.000 109.800 309.106 121.100 L 309.212 132.400 314.806 132.400 L 320.400 132.400 320.400 126.806 L 320.400 121.212 331.900 121.106 L 343.400 121.000 343.511 115.300 L 343.622 109.600 349.211 109.600 L 354.800 109.600 354.800 98.200 L 354.800 86.800 360.600 86.800 L 366.400 86.800 366.400 69.600 L 366.400 52.400 343.400 52.400 L 320.400 52.400 320.400 46.600 L 320.400 40.800 291.800 40.800 L 263.200 40.800 263.200 35.200 L 263.200 29.600 200.200 29.600 L 137.200 29.600 137.200 35.200 M274.800 58.200 L 274.800 64.000 297.600 64.000 L 320.400 64.000 320.400 69.600 L 320.400 75.200 337.600 75.200 L 354.800 75.200 354.800 81.000 L 354.800 86.800 337.600 86.800 L 320.400 86.800 320.400 81.000 L 320.400 75.200 297.600 75.200 L 274.800 75.200 274.800 69.600 L 274.800 64.000 251.800 64.000 L 228.800 64.000 228.800 69.589 L 228.800 75.178 223.100 75.289 L 217.400 75.400 217.294 86.700 L 217.188 98.000 211.594 98.000 L 206.000 98.000 206.000 103.800 L 206.000 109.600 200.200 109.600 L 194.400 109.600 194.400 103.800 L 194.400 98.000 188.600 98.000 L 182.800 98.000 182.800 86.600 L 182.800 75.200 177.200 75.200 L 171.600 75.200 171.600 69.600 L 171.600 64.000 148.600 64.000 L 125.600 64.000 125.600 69.600 L 125.600 75.200 102.811 75.200 L 80.022 75.200 79.911 80.900 L 79.800 86.600 62.700 86.704 L 45.600 86.809 45.600 81.004 L 45.600 75.200 62.800 75.200 L 80.000 75.200 80.000 69.600 L 80.000 64.000 102.800 64.000 L 125.600 64.000 125.600 58.200 L 125.600 52.400 200.200 52.400 L 274.800 52.400 274.800 58.200 " stroke="none" fill="#da2b04" fill-rule="evenodd"></path><path id="path1" d="M137.200 24.000 L 137.200 29.600 108.600 29.600 L 80.000 29.600 80.000 35.200 L 80.000 40.800 108.600 40.800 L 137.200 40.800 137.200 35.201 L 137.200 29.602 200.100 29.501 L 263.000 29.400 263.111 23.900 L 263.223 18.400 200.211 18.400 L 137.200 18.400 137.200 24.000 M263.200 35.200 L 263.200 40.800 291.800 40.800 L 320.400 40.800 320.400 35.200 L 320.400 29.600 291.800 29.600 L 263.200 29.600 263.200 35.200 M34.400 46.800 L 34.400 52.400 57.200 52.400 L 80.000 52.400 80.000 46.800 L 80.000 41.200 57.200 41.200 L 34.400 41.200 34.400 46.800 M320.400 46.800 L 320.400 52.400 343.200 52.400 L 366.000 52.400 366.000 46.800 L 366.000 41.200 343.200 41.200 L 320.400 41.200 320.400 46.800 M22.800 69.400 L 22.800 86.400 28.400 86.400 L 34.000 86.400 34.000 69.400 L 34.000 52.400 28.400 52.400 L 22.800 52.400 22.800 69.400 M125.600 58.200 L 125.600 64.000 102.800 64.000 L 80.000 64.000 80.000 69.600 L 80.000 75.200 62.800 75.200 L 45.600 75.200 45.600 81.000 L 45.600 86.800 40.000 86.800 L 34.400 86.800 34.400 98.200 L 34.400 109.600 40.000 109.600 L 45.600 109.600 45.600 115.200 L 45.600 120.800 51.200 120.800 L 56.800 120.800 56.800 115.200 L 56.800 109.600 51.200 109.600 L 45.600 109.600 45.600 98.204 L 45.600 86.809 62.700 86.704 L 79.800 86.600 79.911 80.900 L 80.022 75.200 102.811 75.200 L 125.600 75.200 125.600 69.600 L 125.600 64.000 148.600 64.000 L 171.600 64.000 171.600 69.600 L 171.600 75.200 177.189 75.200 L 182.778 75.200 182.889 69.500 L 183.000 63.800 200.200 63.800 L 217.400 63.800 217.511 69.500 L 217.622 75.200 223.211 75.200 L 228.800 75.200 228.800 69.600 L 228.800 64.000 251.800 64.000 L 274.800 64.000 274.800 69.600 L 274.800 75.200 297.600 75.200 L 320.400 75.200 320.400 81.000 L 320.400 86.800 337.600 86.800 L 354.800 86.800 354.800 98.200 L 354.800 109.600 349.200 109.600 L 343.600 109.600 343.600 115.200 L 343.600 120.800 349.200 120.800 L 354.800 120.800 354.800 115.200 L 354.800 109.600 360.400 109.600 L 366.000 109.600 366.000 98.200 L 366.000 86.800 360.400 86.800 L 354.800 86.800 354.800 81.000 L 354.800 75.200 337.600 75.200 L 320.400 75.200 320.400 69.600 L 320.400 64.000 297.600 64.000 L 274.800 64.000 274.800 58.200 L 274.800 52.400 200.200 52.400 L 125.600 52.400 125.600 58.200 M366.400 69.400 L 366.400 86.400 372.000 86.400 L 377.600 86.400 377.600 69.400 L 377.600 52.400 372.000 52.400 L 366.400 52.400 366.400 69.400 M182.800 86.800 L 182.800 98.000 188.600 98.000 L 194.400 98.000 194.400 86.800 L 194.400 75.600 188.600 75.600 L 182.800 75.600 182.800 86.800 M206.000 86.800 L 206.000 98.000 211.600 98.000 L 217.200 98.000 217.200 86.800 L 217.200 75.600 211.600 75.600 L 206.000 75.600 206.000 86.800 M194.400 104.000 L 194.400 109.600 200.200 109.600 L 206.000 109.600 206.000 104.000 L 206.000 98.400 200.200 98.400 L 194.400 98.400 194.400 104.000 M91.200 121.000 L 91.200 132.400 85.600 132.400 L 80.000 132.400 80.000 126.800 L 80.000 121.200 68.600 121.200 L 57.200 121.200 57.200 126.800 L 57.200 132.400 68.589 132.400 L 79.978 132.400 80.089 138.100 L 80.200 143.800 85.600 143.800 L 91.000 143.800 91.111 138.111 L 91.222 132.422 96.911 132.311 L 102.600 132.200 102.633 127.000 C 102.650 124.140,102.695 121.575,102.733 121.300 C 102.786 120.907,107.663 120.800,125.600 120.800 L 148.400 120.800 148.400 115.200 L 148.400 109.600 119.800 109.600 L 91.200 109.600 91.200 121.000 M251.869 109.864 C 251.721 110.012,251.600 112.533,251.600 115.467 L 251.600 120.800 274.600 120.800 C 292.697 120.800,297.614 120.907,297.667 121.300 C 297.705 121.575,297.750 124.140,297.767 127.000 L 297.800 132.200 303.489 132.311 L 309.178 132.422 309.289 138.111 L 309.400 143.800 314.900 143.911 L 320.400 144.023 320.400 138.211 L 320.400 132.400 331.800 132.400 L 343.200 132.400 343.200 126.800 L 343.200 121.200 331.800 121.200 L 320.400 121.200 320.400 126.800 L 320.400 132.400 314.806 132.400 L 309.212 132.400 309.106 121.100 L 309.000 109.800 280.569 109.697 C 264.932 109.641,252.017 109.716,251.869 109.864 M148.800 155.400 L 148.800 189.600 154.400 189.600 L 160.000 189.600 160.000 223.800 L 160.000 258.000 165.800 258.000 L 171.600 258.000 171.600 223.800 L 171.600 189.600 165.800 189.600 L 160.000 189.600 160.000 155.400 L 160.000 121.200 154.400 121.200 L 148.800 121.200 148.800 155.400 M240.400 155.400 L 240.400 189.600 246.000 189.600 L 251.600 189.600 251.600 155.400 L 251.600 121.200 246.000 121.200 L 240.400 121.200 240.400 155.400 M228.800 223.800 L 228.800 258.000 234.400 258.000 L 240.000 258.000 240.000 223.800 L 240.000 189.600 234.400 189.600 L 228.800 189.600 228.800 223.800 M171.600 292.589 L 171.600 326.800 177.400 326.800 L 183.200 326.800 183.200 349.811 L 183.200 372.823 188.700 372.711 L 194.200 372.600 194.200 349.800 L 194.200 327.000 188.702 326.889 L 183.204 326.777 183.102 292.689 L 183.000 258.600 177.300 258.489 L 171.600 258.378 171.600 292.589 M217.467 258.667 C 217.320 258.813,217.200 274.198,217.200 292.855 L 217.200 326.777 211.700 326.889 L 206.200 327.000 206.200 349.800 L 206.200 372.600 211.700 372.711 L 217.200 372.823 217.200 349.811 L 217.200 326.800 223.000 326.800 L 228.800 326.800 228.800 292.600 L 228.800 258.400 223.267 258.400 C 220.223 258.400,217.613 258.520,217.467 258.667 M194.800 378.400 L 194.800 384.000 200.200 384.000 L 205.600 384.000 205.600 378.400 L 205.600 372.800 200.200 372.800 L 194.800 372.800 194.800 378.400 " stroke="none" fill="#070606" fill-rule="evenodd"></path><path id="path2" d="M0.000 215.200 L 0.000 430.400 200.000 430.400 L 400.000 430.400 400.000 215.200 L 400.000 0.000 200.000 0.000 L 0.000 0.000 0.000 215.200 M263.208 18.210 C 263.584 18.663,263.660 20.151,263.504 24.007 L 263.293 29.195 291.947 29.297 L 320.600 29.400 320.711 35.097 L 320.822 40.793 343.711 40.897 L 366.600 41.000 366.600 46.600 L 366.600 52.200 372.304 52.311 L 378.008 52.422 377.904 69.711 L 377.800 87.000 372.200 87.111 L 366.600 87.221 366.574 98.511 L 366.549 109.800 360.874 109.911 L 355.200 110.022 355.200 115.611 L 355.200 121.200 349.411 121.200 L 343.622 121.200 343.511 126.900 L 343.400 132.600 332.100 132.706 L 320.800 132.812 320.800 138.406 L 320.800 144.000 314.800 144.000 L 308.800 144.000 308.800 138.411 L 308.800 132.822 303.100 132.711 L 297.400 132.600 297.289 126.897 L 297.178 121.193 274.689 121.297 L 252.200 121.400 252.000 155.600 L 251.800 189.800 246.102 189.911 L 240.404 190.022 240.302 224.311 L 240.200 258.600 234.702 258.711 L 229.204 258.823 229.102 292.911 L 229.000 327.000 223.303 327.111 L 217.607 327.222 217.503 350.111 L 217.400 373.000 211.900 373.111 L 206.400 373.223 206.400 376.955 C 206.400 379.009,206.285 381.528,206.144 382.555 L 205.888 384.421 200.044 384.310 L 194.200 384.200 194.089 378.711 L 193.978 373.222 188.489 373.111 L 183.000 373.000 182.800 350.200 L 182.600 327.400 177.000 327.200 L 171.400 327.000 171.298 292.900 L 171.196 258.800 165.598 258.800 L 160.000 258.800 160.000 224.400 L 160.000 190.000 154.200 190.000 L 148.400 190.000 148.400 155.597 L 148.400 121.193 125.700 121.297 L 103.000 121.400 103.000 127.000 L 103.000 132.600 97.300 132.711 L 91.600 132.822 91.600 138.411 L 91.600 144.000 85.600 144.000 L 79.600 144.000 79.600 138.400 L 79.600 132.800 68.200 132.800 L 56.800 132.800 56.800 127.000 L 56.800 121.200 51.000 121.200 L 45.200 121.200 45.200 115.611 L 45.200 110.022 39.500 109.911 L 33.800 109.800 33.694 98.500 L 33.588 87.200 28.243 87.200 C 24.448 87.200,22.782 87.055,22.497 86.700 C 22.239 86.378,22.136 80.206,22.210 69.400 L 22.323 52.600 27.962 52.489 L 33.600 52.378 33.600 46.589 L 33.600 40.800 56.600 40.800 L 79.600 40.800 79.600 35.000 L 79.600 29.200 108.200 29.200 L 136.800 29.200 136.800 23.633 C 136.800 19.554,136.934 18.013,137.300 17.865 C 138.770 17.272,262.712 17.611,263.208 18.210 M183.200 69.597 L 183.200 75.193 187.941 74.938 C 190.548 74.798,193.158 74.803,193.741 74.949 L 194.800 75.215 194.800 86.608 L 194.800 98.000 200.194 98.000 L 205.588 98.000 205.694 86.500 L 205.800 75.000 211.500 75.078 L 217.200 75.156 217.200 69.578 L 217.200 64.000 200.200 64.000 L 183.200 64.000 183.200 69.597 " stroke="none" fill="#f8f8f8" fill-rule="evenodd"></path><path id="path3" d="M168.731 18.300 C 186.184 18.358,214.624 18.358,231.931 18.300 C 249.239 18.242,234.960 18.195,200.200 18.195 C 165.440 18.195,151.279 18.242,168.731 18.300 M34.088 46.700 L 34.176 52.600 34.299 46.903 L 34.422 41.207 57.311 41.100 L 80.200 40.993 57.100 40.897 L 34.000 40.800 34.088 46.700 M343.189 41.098 L 365.978 41.207 366.107 46.903 L 366.235 52.600 366.218 46.800 L 366.200 41.000 343.300 40.995 L 320.400 40.990 343.189 41.098 M22.593 69.400 L 22.600 86.600 28.294 86.711 L 33.988 86.822 34.103 98.311 L 34.219 109.800 34.210 98.200 L 34.200 86.600 28.504 86.489 L 22.809 86.378 22.698 69.289 L 22.587 52.200 22.593 69.400 M377.695 69.289 L 377.600 86.378 371.900 86.489 L 366.200 86.600 366.191 98.000 L 366.182 109.400 366.297 98.100 L 366.412 86.800 372.019 86.800 C 376.136 86.800,377.676 86.667,377.817 86.300 C 377.923 86.025,377.960 78.240,377.900 69.000 L 377.791 52.200 377.695 69.289 M183.071 63.862 C 182.922 64.011,182.800 66.713,182.800 69.867 L 182.800 75.600 188.700 75.512 L 194.600 75.424 188.900 75.301 L 183.200 75.178 183.200 69.589 L 183.200 64.000 200.200 64.000 L 217.200 64.000 217.200 69.589 L 217.200 75.178 211.500 75.301 L 205.800 75.424 211.711 75.512 L 217.621 75.600 217.511 69.700 L 217.400 63.800 200.371 63.696 C 191.005 63.638,183.220 63.713,183.071 63.862 M197.318 98.298 C 199.033 98.373,201.733 98.372,203.318 98.297 C 204.903 98.221,203.500 98.159,200.200 98.160 C 196.900 98.161,195.603 98.222,197.318 98.298 M45.382 115.200 L 45.400 121.000 51.089 121.111 L 56.778 121.222 56.901 126.911 L 57.024 132.600 57.112 126.700 L 57.200 120.800 51.411 120.800 L 45.622 120.800 45.493 115.100 L 45.365 109.400 45.382 115.200 M125.498 121.100 L 148.396 121.207 148.500 155.503 L 148.605 189.800 148.702 155.300 L 148.800 120.800 125.700 120.897 L 102.600 120.993 125.498 121.100 M251.600 121.100 C 251.600 121.372,268.437 121.368,289.600 121.090 C 294.110 121.031,287.405 120.942,274.700 120.891 C 261.995 120.841,251.600 120.935,251.600 121.100 M343.288 126.700 L 343.376 132.600 343.499 126.911 L 343.622 121.222 349.311 121.099 L 355.000 120.976 349.100 120.888 L 343.200 120.800 343.288 126.700 M102.501 123.000 C 102.505 123.880,102.587 124.193,102.683 123.695 C 102.779 123.198,102.775 122.478,102.675 122.095 C 102.575 121.713,102.496 122.120,102.501 123.000 M297.701 123.000 C 297.705 123.880,297.787 124.193,297.883 123.695 C 297.979 123.198,297.975 122.478,297.875 122.095 C 297.775 121.713,297.696 122.120,297.701 123.000 M308.874 137.876 C 308.833 140.998,308.935 143.637,309.100 143.739 C 309.265 143.842,309.352 142.188,309.294 140.063 C 309.098 132.935,308.949 132.157,308.874 137.876 M240.000 223.789 L 240.000 257.978 234.300 258.101 L 228.600 258.224 234.500 258.312 L 240.400 258.400 240.400 224.000 C 240.400 205.080,240.310 189.600,240.200 189.600 C 240.090 189.600,240.000 204.985,240.000 223.789 M162.918 258.298 C 164.633 258.373,167.333 258.372,168.918 258.297 C 170.503 258.221,169.100 258.159,165.800 258.160 C 162.500 258.161,161.203 258.222,162.918 258.298 M177.097 327.099 L 182.793 327.222 182.900 349.911 L 183.007 372.600 183.103 349.700 L 183.200 326.800 177.300 326.888 L 171.400 326.976 177.097 327.099 M217.199 327.100 C 217.199 327.265,218.954 327.352,221.099 327.294 C 228.048 327.105,228.728 326.946,222.900 326.872 C 219.765 326.832,217.200 326.935,217.199 327.100 M217.351 333.200 C 217.351 335.730,217.416 336.765,217.496 335.500 C 217.575 334.235,217.575 332.165,217.496 330.900 C 217.416 329.635,217.351 330.670,217.351 333.200 M217.350 351.000 C 217.351 353.420,217.416 354.358,217.496 353.085 C 217.576 351.812,217.575 349.832,217.494 348.685 C 217.414 347.538,217.349 348.580,217.350 351.000 M217.348 368.400 C 217.348 370.710,217.414 371.655,217.495 370.500 C 217.576 369.345,217.576 367.455,217.495 366.300 C 217.414 365.145,217.348 366.090,217.348 368.400 M194.400 378.337 L 194.600 384.200 200.200 384.200 L 205.800 384.200 206.000 378.337 C 206.110 375.113,206.065 372.558,205.900 372.661 C 205.735 372.763,205.600 375.357,205.600 378.424 L 205.600 384.000 200.200 384.000 L 194.800 384.000 194.800 378.424 C 194.800 375.357,194.665 372.763,194.500 372.661 C 194.335 372.558,194.290 375.113,194.400 378.337 " stroke="none" fill="#747474" fill-rule="evenodd"></path><path id="path4" d="M168.931 17.900 C 186.274 17.958,214.534 17.958,231.731 17.900 C 248.929 17.842,234.740 17.795,200.200 17.795 C 165.660 17.795,151.589 17.842,168.931 17.900 M136.887 23.500 L 136.800 29.200 108.200 29.200 L 79.600 29.200 79.688 35.100 L 79.776 41.000 79.899 35.300 L 80.022 29.600 108.424 29.600 C 131.363 29.600,136.863 29.500,137.025 29.080 C 137.135 28.794,137.168 26.139,137.100 23.180 L 136.975 17.800 136.887 23.500 M263.350 22.600 C 263.351 25.020,263.416 25.958,263.496 24.685 C 263.576 23.412,263.575 21.432,263.494 20.285 C 263.414 19.138,263.349 20.180,263.350 22.600 M291.989 29.499 L 320.378 29.605 320.507 35.303 L 320.635 41.000 320.618 35.200 L 320.600 29.400 292.100 29.396 L 263.600 29.392 291.989 29.499 M33.760 46.600 C 33.761 49.900,33.822 51.197,33.898 49.482 C 33.973 47.767,33.972 45.067,33.897 43.482 C 33.821 41.897,33.759 43.300,33.760 46.600 M366.390 42.719 L 366.583 44.600 366.719 43.047 C 366.793 42.193,366.707 41.347,366.526 41.166 C 366.345 40.985,366.284 41.684,366.390 42.719 M22.150 66.600 C 22.151 69.020,22.216 69.958,22.296 68.685 C 22.376 67.412,22.375 65.432,22.294 64.285 C 22.214 63.138,22.149 64.180,22.150 66.600 M188.313 75.095 C 189.476 75.176,191.276 75.176,192.313 75.093 C 193.351 75.011,192.400 74.945,190.200 74.946 C 188.000 74.947,187.151 75.014,188.313 75.095 M205.781 75.305 C 205.674 75.583,205.638 80.848,205.700 87.005 L 205.813 98.200 205.907 86.714 L 206.000 75.229 209.900 75.098 L 213.800 74.967 209.887 74.884 C 207.040 74.823,205.922 74.938,205.781 75.305 M194.577 86.600 C 194.577 92.980,194.632 95.534,194.699 92.276 C 194.767 89.017,194.766 83.797,194.699 80.676 C 194.631 77.554,194.576 80.220,194.577 86.600 M22.075 83.020 C 21.976 87.280,21.857 87.200,28.274 87.200 L 33.588 87.200 33.694 98.500 L 33.800 109.800 39.600 109.818 L 45.400 109.835 39.700 109.707 L 34.000 109.578 34.000 98.200 L 34.000 86.822 28.300 86.711 L 22.600 86.600 22.375 83.200 L 22.149 79.800 22.075 83.020 M372.000 86.800 L 366.200 87.034 371.876 87.117 C 375.322 87.167,377.650 87.043,377.800 86.800 C 377.936 86.580,377.992 86.437,377.924 86.483 C 377.856 86.529,375.190 86.672,372.000 86.800 M366.551 93.200 C 366.551 95.730,366.616 96.765,366.696 95.500 C 366.775 94.235,366.775 92.165,366.696 90.900 C 366.616 89.635,366.551 90.670,366.551 93.200 M366.464 107.889 L 366.400 109.578 360.700 109.689 L 355.000 109.800 354.984 115.400 L 354.967 121.000 355.095 115.500 L 355.222 110.000 360.824 110.000 C 366.973 110.000,366.993 109.992,366.692 107.538 C 366.543 106.323,366.522 106.356,366.464 107.889 M251.867 121.467 C 251.720 121.613,251.600 136.998,251.600 155.656 L 251.600 189.578 246.100 189.705 L 240.600 189.833 246.200 189.816 L 251.800 189.800 252.000 155.500 C 252.110 136.635,252.185 121.200,252.167 121.200 C 252.148 121.200,252.013 121.320,251.867 121.467 M297.382 126.800 L 297.400 132.600 303.000 132.616 L 308.600 132.633 303.111 132.506 L 297.622 132.378 297.493 126.689 L 297.365 121.000 297.382 126.800 M102.883 128.289 L 102.800 132.378 97.100 132.489 L 91.400 132.600 91.384 138.200 L 91.367 143.800 91.495 138.300 L 91.622 132.800 97.224 132.800 C 103.744 132.800,103.283 133.179,103.099 127.970 L 102.966 124.200 102.883 128.289 M68.189 132.697 L 79.578 132.812 79.707 138.506 L 79.835 144.200 79.818 138.400 L 79.800 132.600 68.300 132.591 L 56.800 132.581 68.189 132.697 M320.575 132.920 C 320.465 133.206,320.432 135.861,320.500 138.820 L 320.625 144.200 320.713 138.506 L 320.800 132.812 332.100 132.700 L 343.400 132.587 332.087 132.494 C 323.105 132.419,320.734 132.507,320.575 132.920 M151.318 189.898 C 153.033 189.973,155.733 189.972,157.318 189.897 C 158.903 189.821,157.500 189.759,154.200 189.760 C 150.900 189.761,149.603 189.822,151.318 189.898 M165.498 258.699 L 171.196 258.822 171.300 292.911 L 171.405 327.000 171.502 292.700 L 171.600 258.400 165.700 258.488 L 159.800 258.576 165.498 258.699 M228.704 292.762 C 228.647 311.661,228.735 327.040,228.900 326.938 C 229.065 326.836,229.200 311.468,229.200 292.788 L 229.200 258.823 234.700 258.699 L 240.200 258.575 234.504 258.488 L 228.809 258.400 228.704 292.762 M217.353 342.200 C 217.353 344.840,217.418 345.868,217.497 344.484 C 217.575 343.101,217.574 340.941,217.495 339.684 C 217.416 338.428,217.352 339.560,217.353 342.200 M217.353 359.800 C 217.353 362.440,217.418 363.468,217.497 362.084 C 217.575 360.701,217.574 358.541,217.495 357.284 C 217.416 356.028,217.352 357.160,217.353 359.800 M183.061 372.900 C 183.163 373.065,185.667 373.200,188.624 373.200 L 194.000 373.200 194.000 378.576 C 194.000 381.533,194.135 384.037,194.300 384.139 C 194.465 384.242,194.546 381.741,194.480 378.583 L 194.359 372.841 188.617 372.720 C 185.459 372.654,182.958 372.735,183.061 372.900 M211.700 372.699 L 206.000 372.822 206.086 377.511 L 206.171 382.200 206.299 377.700 L 206.426 373.200 211.789 373.200 C 214.934 373.200,217.255 373.034,217.400 372.800 C 217.536 372.580,217.592 372.440,217.524 372.488 C 217.456 372.537,214.835 372.632,211.700 372.699 " stroke="none" fill="#b0b0b0" fill-rule="evenodd"></path></g></svg>